<?xml version="1.0" standalone="no"?><!DOCTYPE svg PUBLIC "-//W3C//DTD SVG 1.1//EN" "http://www.w3.org/Graphics/SVG/1.1/DTD/svg11.dtd"><svg t="1546983800065" class="icon" style="" viewBox="0 0 1024 1024" version="1.1" xmlns="http://www.w3.org/2000/svg" p-id="29186" xmlns:xlink="http://www.w3.org/1999/xlink" width="200" height="200"><defs><style type="text/css"></style></defs><path d="M438.033067 894.907733h-0.1024c-30.9248-0.375467-51.746133-17.373867-66.423467-32.187733-18.909867-19.114667-41.745067-45.738667-63.863467-71.4752-23.176533-26.999467-47.138133-54.8864-65.911466-73.4208l-3.2768-3.310933c-6.826667-6.9632-11.195733-17.885867-9.659734-27.579734 1.501867-9.591467 6.314667-19.182933 14.9504-23.6544l53.0432-27.613866c25.531733-13.277867 51.029333-26.487467 76.526934-39.936 6.656-3.515733 13.073067-5.256533 19.592533-5.256534 7.304533 0 18.1248 2.2528 28.296533 12.834134 13.277867 13.960533 29.4912 34.5088 46.660267 56.251733 16.145067 20.411733 32.836267 41.608533 44.475733 53.691733 10.376533 10.786133 22.152533 17.476267 36.010667 20.411734 24.6784 5.188267 41.437867 23.108267 44.782933 47.957333 3.140267 23.483733-8.567467 45.226667-30.583466 56.695467l-97.826134 50.4832a56.900267 56.900267 0 0 1-10.376533 3.6864l-7.714133 1.365333a63.010133 63.010133 0 0 1-8.6016 1.058133z m-129.570134-196.027733c14.711467 16.1792 30.446933 34.440533 45.806934 52.360533 21.4016 24.9856 43.554133 50.722133 60.893866 68.232534 10.1376 10.205867 15.872 13.243733 21.2992 13.892266l7.5776-2.696533 78.097067-40.482133a130.6624 130.6624 0 0 1-54.033067-34.269867c-13.7216-14.267733-31.368533-36.625067-48.4352-58.2656-11.127467-14.097067-22.493867-28.535467-32.187733-39.936-20.753067 10.888533-41.540267 21.674667-62.327467 32.494933l-16.6912 8.669867z" p-id="29187"></path><path d="M405.674667 643.720533c-8.2944 0-23.688533-2.833067-33.5872-21.8112a91644.450133 91644.450133 0 0 0-107.9296-208.657066l-21.265067-41.3696c-6.3488-13.482667-3.447467-32.597333 8.772267-41.1648 95.709867-67.003733 175.786667-157.696 252.040533-285.422934a30.378667 30.378667 0 0 1 27.306667-14.916266 30.583467 30.583467 0 0 1 26.350933 16.520533l264.123733 509.883733a30.72 30.72 0 0 1-28.842666 44.782934l-17.885867-0.955734a1910.442667 1910.442667 0 0 0-38.536533-1.8432c-72.430933-2.696533-143.803733 1.911467-209.134934 13.858134-38.843733 7.202133-73.728 16.418133-106.5984 28.296533a42.461867 42.461867 0 0 1-14.813866 2.798933z m-97.143467-278.3232l10.171733 19.626667c33.109333 63.8976 66.2528 127.863467 99.259734 191.829333a752.5376 752.5376 0 0 1 97.9968-24.610133c69.7344-12.8 145.749333-17.681067 222.481066-14.848l3.8912 0.170667-214.698666-414.446934c-66.6624 102.638933-137.4208 180.8384-219.101867 242.2784z" p-id="29188"></path><path d="M215.2448 725.162667c-76.9024 0-146.056533-50.824533-168.174933-123.665067-25.053867-82.432 10.410667-168.209067 86.289066-208.520533 26.180267-13.9264 52.5312-27.511467 78.882134-41.096534l42.427733-21.947733 3.6864-1.706667a30.72 30.72 0 0 1 40.7552 13.448534l133.700267 257.979733a30.72 30.72 0 0 1-13.0048 41.335467l-21.742934 11.3664c-11.741867 6.0416-23.313067 12.151467-34.884266 18.2272-24.917333 13.1072-49.834667 26.180267-75.229867 38.263466a168.7552 168.7552 0 0 1-72.704 16.315734z m43.349333-328.123734l-18.2272 9.454934c-26.112 13.448533-52.224 26.9312-78.165333 40.721066-50.3808 26.794667-73.0112 81.6128-56.354133 136.430934 14.301867 47.172267 59.2896 80.0768 109.397333 80.0768 16.213333 0 31.812267-3.515733 46.3872-10.410667 24.644267-11.6736 48.776533-24.405333 72.942933-37.102933 9.864533-5.154133 19.729067-10.376533 29.5936-15.496534l-105.5744-203.6736z" p-id="29189"></path><path d="M868.727467 413.866667c19.8656-68.096 15.325867-133.290667-17.066667-195.720534-32.4608-62.464-83.080533-103.867733-150.1184-126.8736L720.725333 30.72c172.066133 52.667733 262.417067 239.957333 208.520534 402.3296l-60.5184-19.182933z" p-id="29190"></path><path d="M823.978667 399.701333l-59.0848-18.8416c11.434667-39.1168 8.977067-76.834133-9.8304-112.776533-18.773333-35.7376-47.786667-59.630933-86.459734-72.840533l18.602667-58.914134c105.7792 29.696 174.1824 151.074133 136.772267 263.3728z" p-id="29191"></path></svg>