<?xml version="1.0" standalone="no"?><!DOCTYPE svg PUBLIC "-//W3C//DTD SVG 1.1//EN" "http://www.w3.org/Graphics/SVG/1.1/DTD/svg11.dtd"><svg t="1546964225293" class="icon" style="" viewBox="0 0 1024 1024" version="1.1" xmlns="http://www.w3.org/2000/svg" p-id="10849" xmlns:xlink="http://www.w3.org/1999/xlink" width="200" height="200"><defs><style type="text/css"></style></defs><path d="M512.736 927.552c229.504 0 415.552-186.048 415.552-415.552S742.24 96.448 512.736 96.448C283.232 96.448 97.184 282.496 97.184 512s186.048 415.552 415.552 415.552z m-1.408-252.224a30.464 30.464 0 0 1-2.88 23.232 27.552 27.552 0 0 1-19.552 13.952 30.528 30.528 0 0 1-21.344-3.232 27.616 27.616 0 0 1-13.888-19.584 193.248 193.248 0 0 1-9.696-53.312l-0.864 16.256c-2.272-8.128-4.608-16.96-7.168-26.496h-105.984c-2.912 9.568-5.408 18.368-7.488 26.496-2.08 8.096-3.936 15.04-5.6 20.864a210.88 210.88 0 0 1-20.448 54.016c13.376-27.552 7.616-20.8 0.064-17.344a27.712 27.712 0 0 1-13.216 3.04 30.048 30.048 0 0 1-8.416-1.184 27.552 27.552 0 0 1-18.4-15.296 27.712 27.712 0 0 1-3.04-13.216c0-2.912 0.416-5.728 1.184-8.416l99.68-361.312a27.776 27.776 0 0 1 12.288-17.28c2.848-2.272 9.024-4.512 15.712-4.512h0.704a29.472 29.472 0 0 1 18.432 5.952 27.744 27.744 0 0 1 10.208 15.84l99.744 361.536z m-92.224-109.088h-72.32l18.048-66.72c5.92-21.632 11.936-43.264 18.112-64.832 5.824 20.352 11.808 41.984 18.048 64.832l18.112 66.72z m235.616-271.776c14.528 0 28.16 2.688 40.8 8.096a105.344 105.344 0 0 1 59.2 65.088c1.984 3.392 4.704 17.024 4.704 31.552v206.944c0 14.528-2.72 28.16-8.128 40.832a105.28 105.28 0 0 1-65.056 59.2c-3.424 1.952-17.056 4.672-31.552 4.672h-75.328a28.704 28.704 0 0 1-20.704-8.768 28.8 28.8 0 0 1-8.704-20.64V324.384c0-8.32 2.912-15.36 8.736-21.248a28.704 28.704 0 0 1 20.64-8.672h75.36z m44.864 104.736v207.68c0 12.16-5.024 23.168-13.12 31.04-8.672 8.736-19.296 13.12-31.776 13.12h-44.864v-296.704h45.664c12.16 0 23.136 4.992 30.976 13.088 8.736 8.736 13.12 19.36 13.12 31.808z" fill="" p-id="10850"></path></svg>