<?xml version="1.0" standalone="no"?><!DOCTYPE svg PUBLIC "-//W3C//DTD SVG 1.1//EN" "http://www.w3.org/Graphics/SVG/1.1/DTD/svg11.dtd"><svg t="1546964653120" class="icon" style="" viewBox="0 0 1024 1024" version="1.1" xmlns="http://www.w3.org/2000/svg" p-id="13092" xmlns:xlink="http://www.w3.org/1999/xlink" width="200" height="200"><defs><style type="text/css"></style></defs><path d="M364.166 682.359l65.678 87.486h22.357l152.753-160.875 120.697 160.875h72.298l-193.074-257.199-164.005 175.797-76.784-102.397-137.905 183.727h72.298l65.678-87.486zM275.851 272.191h64.193v64.228h-64.193v-64.228zM388.217 272.191h369.219v64.228h-369.219v-64.228zM275.851 400.641h64.193v64.158h-64.193v-64.158zM388.217 400.641h369.219v64.158h-369.219v-64.158zM773.484 127.714h-513.712c-70.917 0-128.397 57.486-128.397 128.437v513.712c0 70.846 57.486 128.397 128.397 128.397h513.712c70.917 0 128.437-57.486 128.437-128.397v-513.712c0-70.947-57.486-128.437-128.437-128.437M837.701 746.523c0 48.286-39.191 87.57-87.577 87.57h-466.975c-48.356 0-87.577-39.191-87.577-87.57v-467.035c0-48.356 39.191-87.57 87.577-87.57h466.975c48.356 0 87.577 39.172 87.577 87.57v467.035z" p-id="13093"></path></svg>