<?xml version="1.0" standalone="no"?><!DOCTYPE svg PUBLIC "-//W3C//DTD SVG 1.1//EN" "http://www.w3.org/Graphics/SVG/1.1/DTD/svg11.dtd"><svg t="1546957460593" class="icon" style="" viewBox="0 0 1285 1024" version="1.1" xmlns="http://www.w3.org/2000/svg" p-id="1424" xmlns:xlink="http://www.w3.org/1999/xlink" width="250.9765625" height="200"><defs><style type="text/css"></style></defs><path d="M0 0" p-id="1425"></path><path d="M322.423467 562.414933c-103.048533 0-186.6752-160.256-186.6752-264.9088 0-102.946133 83.7632-186.6752 186.6752-186.6752S509.064533 194.56 509.064533 297.506133c0 104.618667-83.5584 264.9088-186.641066 264.9088z m0-417.450666c-84.104533 0-152.541867 68.437333-152.541867 152.541866 0 86.9376 71.304533 230.775467 152.541867 230.775467s152.507733-143.837867 152.507733-230.775467c0-84.138667-68.4032-152.541867-152.507733-152.541866zM962.423467 562.414933c-103.048533 0-186.6752-160.256-186.6752-264.9088 0-102.946133 83.7632-186.6752 186.6752-186.6752s186.641067 83.729067 186.641066 186.6752c0 104.618667-83.5584 264.9088-186.641066 264.9088z m0-417.450666c-84.104533 0-152.541867 68.437333-152.541867 152.541866 0 86.9376 71.304533 230.775467 152.541867 230.775467s152.507733-143.837867 152.507733-230.775467c0-84.138667-68.4032-152.541867-152.507733-152.541866z" p-id="1426"></path><path d="M322.423467 913.2032C144.657067 913.2032 0 812.817067 0 689.2544c0-84.002133 66.4576-196.744533 169.301333-287.1296a17.1008 17.1008 0 0 1 24.098134 1.570133 17.043911 17.043911 0 0 1-1.536 24.098134c-94.344533 82.875733-157.696 187.904-157.696 261.461333 0 104.584533 129.3312 189.815467 288.290133 189.815467 34.338133 0 56.1152-4.471467 85.2992-11.332267a17.1008 17.1008 0 0 1 7.816533 33.28c-30.651733 7.0656-55.227733 12.1856-93.149866 12.1856zM579.515733 560.059733a17.055289 17.055289 0 0 1-14.711466-8.3968c-26.555733-44.9536-63.249067-79.735467-112.0256-123.972266a17.032533 17.032533 0 0 1-1.194667-24.132267 17.089422 17.089422 0 0 1 24.098133-1.194667c51.0976 46.250667 89.531733 82.807467 118.545067 131.9936a17.066667 17.066667 0 0 1-6.007467 23.415467 17.476267 17.476267 0 0 1-8.704 2.286933zM694.5792 560.059733c-2.935467 0-5.9392-0.7168-8.669867-2.321066a17.191822 17.191822 0 0 1-6.075733-23.415467c23.722667-40.1408 59.938133-71.543467 98.269867-104.721067a1729.308444 1729.308444 0 0 0 30.9248-27.204266 17.1008 17.1008 0 0 1 24.132266 1.194666c6.417067 6.997333 5.802667 17.783467-1.194666 24.132267-10.4448 9.454933-20.992 18.6368-31.5392 27.716267-36.215467 31.3344-70.3488 60.928-91.204267 96.290133a16.941511 16.941511 0 0 1-14.6432 8.328533zM962.423467 912.930133c-34.850133 0-69.700267-3.9936-103.7312-12.014933a17.078044 17.078044 0 0 1-12.731734-20.5824 17.1008 17.1008 0 0 1 20.5824-12.731733c31.470933 7.338667 63.726933 11.127467 95.9488 11.127466 158.9248 0 288.187733-85.060267 288.187734-189.576533 0-73.557333-63.317333-178.619733-157.661867-261.461333a17.066667 17.066667 0 1 1 22.528-25.668267c102.843733 90.3168 169.2672 203.025067 169.2672 287.163733-0.034133 123.426133-144.622933 223.744-322.389333 223.744z" p-id="1427"></path><path d="M473.224533 838.3488c-68.232533 0-123.733333-54.8864-123.733333-122.402133 0-68.676267 52.599467-122.402133 119.739733-122.402134 27.886933 0 46.592 9.9328 62.634667 20.616534 7.816533 5.2224 9.966933 15.872 4.744533 23.688533a17.123556 17.123556 0 0 1-23.688533 4.7104c-14.097067-9.386667-25.770667-14.916267-43.690667-14.916267-47.957333 0-85.6064 38.8096-85.6064 88.2688 0 48.674133 40.209067 88.2688 89.6 88.2688a91.773156 91.773156 0 0 0 55.022934-18.670933 17.009778 17.009778 0 0 1 23.9616 3.072c5.7344 7.509333 4.369067 18.158933-3.072 23.927467a124.689067 124.689067 0 0 1-75.912534 25.838933zM858.658133 838.3488c-27.374933 0-54.306133-9.216-75.946666-25.8048a17.123556 17.123556 0 0 1-3.072-23.927467 16.952889 16.952889 0 0 1 23.927466-3.072 91.773156 91.773156 0 0 0 55.022934 18.670934c49.390933 0 89.6-39.594667 89.6-88.2688 0-49.4592-37.649067-88.2688-85.6064-88.2688-17.885867 0-29.5936 5.461333-43.690667 14.916266-7.850667 5.2224-18.466133 3.140267-23.6544-4.7104s-3.140267-18.466133 4.744533-23.688533c16.042667-10.683733 34.747733-20.616533 62.634667-20.616533 67.140267 0 119.739733 53.76 119.739733 122.402133 0.034133 67.413333-55.466667 122.368-123.6992 122.368z" p-id="1428"></path><path d="M791.2448 722.193067h-238.933333c-9.4208 0-17.066667-7.68-17.066667-17.066667s7.645867-17.066667 17.066667-17.066667h238.933333c9.386667 0 17.066667 7.68 17.066667 17.066667 0 9.489067-7.5776 17.066667-17.066667 17.066667z" p-id="1429"></path></svg>