<?xml version="1.0" standalone="no"?><!DOCTYPE svg PUBLIC "-//W3C//DTD SVG 1.1//EN" "http://www.w3.org/Graphics/SVG/1.1/DTD/svg11.dtd"><svg t="1546964057962" class="icon" style="" viewBox="0 0 1024 1024" version="1.1" xmlns="http://www.w3.org/2000/svg" p-id="8259" xmlns:xlink="http://www.w3.org/1999/xlink" width="200" height="200"><defs><style type="text/css"></style></defs><path d="M549.769395 286.810994a262.991854 262.991854 0 1 0 262.991854 262.991855A262.991854 262.991854 0 0 0 549.769395 286.810994z" p-id="8260"></path><path d="M549.657882 75.494185C287.803459 75.494185 75.393823 287.836912 75.393823 549.758244S287.803459 1024 549.657882 1024s474.241756-212.320425 474.241756-474.241756-212.320425-474.264059-474.241756-474.264059z m277.979179 752.243237a393.127325 393.127325 0 1 1 115.148146-277.979178 390.584833 390.584833 0 0 1-115.148146 277.979178z" p-id="8261"></path><path d="M549.769395 366.92181a182.881038 182.881038 0 1 1-182.881039 182.881039 183.104064 183.104064 0 0 1 182.881039-182.881039" p-id="8262"></path><path d="M480.475323 486.240537m-28.458073 0a28.458074 28.458074 0 1 0 56.916147 0 28.458074 28.458074 0 1 0-56.916147 0Z" p-id="8263"></path><path d="M661.728275 549.802849a111.936577 111.936577 0 1 1-111.936577-111.936577 111.936577 111.936577 0 0 1 111.936577 111.936577z" p-id="8264"></path><path d="M545.888749 593.025221a45.943285 45.943285 0 0 1-32.695562-13.537657L244.291153 310.585529a46.233219 46.233219 0 1 1 65.391123-65.391122l268.902034 268.902034a46.233219 46.233219 0 0 1-32.695561 78.92878z" p-id="8265"></path><path d="M276.986714 249.342684a28.458074 28.458074 0 0 1 20.072309 8.363462l269.013547 268.902035a28.547284 28.547284 0 0 1-40.367643 40.367643L256.802892 298.07379a28.547284 28.547284 0 0 1 20.072309-48.708803m0-35.394172a63.941456 63.941456 0 0 0-45.2073 109.148756l268.991244 268.879732A63.941456 63.941456 0 1 0 591.118352 501.584702L322.194015 232.682668a63.517707 63.517707 0 0 0-45.207301-18.734156z" p-id="8266"></path><path d="M37.702487 250.034064l162.251165-49.154855 49.377881-163.120965 190.999172 243.967765-22.280263 137.205384-136.960056 23.016248-243.387899-191.913577z" p-id="8267"></path><path d="M256.401446 75.494185L421.618853 286.521061 402.617067 403.676439l-116.709326 19.626257-210.603128-166.176416L214.204992 215.063641l42.241059-139.569456M242.26162 0l-19.737771 65.235005L185.769221 186.672475l-120.746091 36.576207L0.100362 242.919545l53.280829 42.018034 210.603128 166.064904 12.311016 9.723919 15.47798-2.609401 116.709326-19.626257 25.001177-4.215185 4.059067-25.023479 19.024088-117.08847 2.475585-15.29956-9.545498-12.199503-165.217407-210.982271L242.26162 0z" p-id="8268"></path><path d="M349.090909 390.198998l40.229368-40.229368 84.482119 84.482119-40.231598 40.229368z" p-id="8269"></path></svg>