<?xml version="1.0" standalone="no"?><!DOCTYPE svg PUBLIC "-//W3C//DTD SVG 1.1//EN" "http://www.w3.org/Graphics/SVG/1.1/DTD/svg11.dtd"><svg t="1546981073588" class="icon" style="" viewBox="0 0 1024 1024" version="1.1" xmlns="http://www.w3.org/2000/svg" p-id="19296" xmlns:xlink="http://www.w3.org/1999/xlink" width="200" height="200"><defs><style type="text/css"></style></defs><path d="M956.813808 663.080927c-16.08535 79.035054-41.017182 154.189731-107.419522 207.230762-33.70259 26.916023-74.479295 35.084053-115.38903 41.87369-61.444421 10.205433-122.778324 4.596691-183.897334-3.901867-60.406788-8.397251-120.438023-19.903306-181.374884-23.946388-54.191226-3.594875-107.306958 0.846274-156.419516 27.382651-4.327562 2.335185-7.939833 3.759627-12.629645-0.979304-42.859134-43.287899-85.963861-86.326111-129.455397-129.819694-6.969739-6.974855-5.555529-18.700921 2.914376-23.732517 52.655244-31.267121 96.114035-73.514317 145.378042-107.726513 41.48074-28.795836 84.136236-55.028291 135.537929-62.055334 35.672454-4.881171 70.02996 3.235694 104.102986 11.583826 57.498552 14.086833 114.957195 27.42256 174.813444 21.275559 26.354228-2.702552 52.647057-3.501754 78.942957 0.509606 18.072611 2.769067 34.004465 9.422603 43.724851 25.88146 16.438391 27.830859 5.468548 56.354496-26.145473 68.306712-23.480784 8.872065-48.197722 12.090363-72.958662 14.474666-19.444864 1.876744-58.115606 4.061502-58.718333 3.852748-4.66116-0.208754-5.694699 0.066515-11.441587 1.1328 0.431835 1.463328 2.925632 3.264347 5.906523 3.745301 24.917506 5.773494 47.079248 18.292622 70.012563 28.891004 17.681708 8.17417 35.4637 16.128329 54.29765 21.246907 33.629935 9.139148 59.897182-4.958942 83.21526-27.379581 21.991874-21.142529 38.824237-46.526663 56.884568-70.870094 17.48728-23.567765 37.340443-43.968397 66.599837-52.528354C945.250448 631.110795 961.225281 641.402185 956.813808 663.080927zM631.732965 605.78192l-55.723116 0c-6.615675 0-11.980869-5.379521-11.980869-12.012591l0-42.977837c0-6.633071-5.362124-12.015661-11.977799-12.015661l-67.984371 0c-6.612605 0-11.977799-5.373381-11.977799-12.012591l0-23.827685c0-6.636141 5.364171-12.009522 11.977799-12.009522l67.984371 0c6.615675 0 11.977799-5.384637 11.977799-12.015661 0-2.164293-0.582261-4.284583-1.680269-6.14393l-5.055133-8.515954c-2.158153-3.640923-6.068206-5.874801-10.29139-5.874801l-61.371766 0c-6.424316 0-11.7056-5.080715-11.971659-11.517311l-1.054005-25.745361c-0.281409-6.827499 5.158487-12.507872 11.966543-12.507872l34.154891 0c8.748245 0 14.544251-9.098215 10.871605-17.058514l-49.631374-107.544365c-3.675716-7.963369 2.12029-17.058514 10.865465-17.058514l56.621579 0c5.045923 0 9.550517 3.169179 11.265578 7.928576l39.209 108.804055c3.783163 10.506285 18.564821 10.596336 22.477944 0.13917l40.819684-109.079324c1.75497-4.686742 6.221702-7.792477 11.215436-7.792477l54.680367 0c8.751315 0 14.544251 9.095145 10.873652 17.058514l-49.637514 107.544365c-3.672646 7.960299 2.12336 17.058514 10.873652 17.058514l22.397103 0c6.615675 0 11.977799 5.379521 11.977799 12.012591l0 25.745361c0 6.636141-5.362124 12.012591-11.977799 12.012591l-60.887742 0c-4.223185 0-8.136308 2.232854-10.29446 5.874801l-5.052063 8.515954c-1.103124 1.859347-1.685385 3.979638-1.685385 6.14393 0 6.630001 5.367241 12.015661 11.983939 12.015661l65.936735 0c6.615675 0 11.977799 5.373381 11.977799 12.009522l0 23.827685c0 6.639211-5.362124 12.012591-11.977799 12.012591l-65.936735 0c-6.615675 0-11.983939 5.381567-11.983939 12.015661l0 42.977837C643.707694 600.402399 638.34557 605.78192 631.732965 605.78192zM789.522688 637.459387c51.647287-48.962132 83.881432-118.308523 83.881432-195.21203 0-148.332327-119.898741-268.587178-267.802302-268.587178s-267.805372 120.254851-267.805372 268.587178c0 44.080961 10.590196 85.683475 29.354562 122.384351-24.716938 13.338796-46.540989 14.115486-64.013943 10.017144-17.672498-40.544415-27.498284-85.318154-27.498284-132.400472 0-182.765557 147.729599-330.926991 329.962014-330.926991s329.958944 148.161435 329.958944 330.926991c0 92.860944-38.151925 176.775122-99.57281 236.874919C814.016545 673.671123 798.36917 652.840702 789.522688 637.459387z" p-id="19297"></path></svg>