<?xml version="1.0" standalone="no"?><!DOCTYPE svg PUBLIC "-//W3C//DTD SVG 1.1//EN" "http://www.w3.org/Graphics/SVG/1.1/DTD/svg11.dtd"><svg t="1546981497934" class="icon" style="" viewBox="0 0 1645 1024" version="1.1" xmlns="http://www.w3.org/2000/svg" p-id="26164" xmlns:xlink="http://www.w3.org/1999/xlink" width="321.2890625" height="200"><defs><style type="text/css"></style></defs><path d="M1558.151086 810.607593l2.467814-727.948066L216.820381 83.513456 216.759094 0 1644.610394 0l0 810.672966L1558.151086 810.607593 1558.151086 810.607593zM1514.551669 938.672455l-86.459308-0.089887 2.455557-727.91538-1343.794434 0.817157-0.053115-83.488942 1427.8513 0L1514.551669 938.672455 1514.551669 938.672455zM1387.209991 1024 0 1024 0 255.994893l1387.209991 0L1387.209991 1024 1387.209991 1024zM1300.521879 338.670763 86.692198 338.670763l0 600.005778 1213.829682 0L1300.521879 338.670763 1300.521879 338.670763zM1170.459068 874.67271c0 7.575046 1.940748 14.602598 4.396305 21.3278L693.607038 896.000511c119.701259 0 216.755008-114.602199 216.755008-255.994893 0-141.404952-97.05375-256.003064-216.755008-256.003064l481.244249 0c-2.455557 6.725203-4.396305 13.752754-4.396305 21.3278 0 35.337959 29.119394 63.999745 65.033448 63.999745 7.689448 0 14.810973-1.903976 21.662835-4.294161l0 349.943445c-6.851862-2.402442-13.973387-4.306418-21.662835-4.306418C1199.578462 810.672966 1170.459068 839.330665 1170.459068 874.67271L1170.459068 874.67271zM1083.754613 551.123439c-35.901798 0-65.029363 38.210266-65.029363 85.335717 0 47.117279 29.127565 85.327545 65.029363 85.327545 35.918141 0 65.037534-38.210266 65.037534-85.327545C1148.792148 589.32962 1119.672754 551.123439 1083.754613 551.123439L1083.754613 551.123439zM784.372764 486.179878c0.60061 1.242079 1.148106 2.880479 1.597542 4.935629 0.457608 2.034721 0.75587 4.641452 0.935645 7.762993 0.187946 3.088854 0.277833 6.974436 0.277833 11.603631 0 5.152176-0.114402 9.511709-0.396321 13.086771-0.269662 3.546462-0.731356 6.492313-1.360567 8.817125-0.641468 2.304383-1.519912 3.999984-2.700704 5.066374-1.184878 1.090905-2.753819 1.605714-4.75994 1.605714-1.965263 0-5.115403-1.242079-9.450422-3.697636-4.335018-2.484158-9.666969-5.144004-15.96725-8.061255-6.337053-2.933594-13.638352-5.568926-21.940668-7.93051-8.335002-2.390185-17.425875-3.575062-27.362506-3.575062-7.791593 0-14.553568 0.902959-20.31044 2.790592-5.777301 1.842689-10.594442 4.424906-14.504539 7.689448-3.881496 3.2768-6.761975 7.211411-8.665951 11.824263-1.887633 4.600595-2.827364 9.450422-2.827364 14.606683 0 7.636333 2.120523 14.243048 6.365654 19.84466 4.241045 5.577097 9.912116 10.574013 17.058155 14.904946 7.121524 4.367705 15.21138 8.457576 24.245051 12.2737 9.0255 3.820209 18.20626 7.844708 27.603567 12.122526 9.389135 4.269646 18.606667 9.090873 27.640339 14.516796 9.021414 5.425923 17.058155 11.905979 24.089792 19.452425 7.060237 7.583218 12.727222 16.428944 17.049983 26.676094 4.339104 10.198121 6.516828 22.230759 6.516828 36.089744 0 18.116373-3.448403 34.030508-10.300265 47.693375-6.851862 13.695553-16.15111 25.086723-27.873229 34.238883-11.762977 9.15216-25.491216 16.032622-41.188804 20.674075-1.993863 0.57201-4.142987 0.784471-6.181794 1.295194l0 46.606556-42.639258 0 0-41.090745c-0.547495 0-1.025532 0.085801-1.544427 0.085801-12.122526 0-23.366607-0.96016-33.732245-2.876393-10.386067-1.932577-19.579084-4.26556-27.509594-6.994865-7.942767-2.725219-14.578083-5.601612-19.918204-8.596493-5.295178-2.974452-9.143988-5.617955-11.481057-7.918252-2.36567-2.271697-4.028585-5.605698-5.029602-9.961145-1.001017-4.371791-1.491312-10.643471-1.491312-18.847729 0-5.51581 0.179775-10.153177 0.555667-13.879413 0.359549-3.730322 0.935645-6.761975 1.748716-9.090873 0.821243-2.300297 1.916233-3.946869 3.252285-4.939715 1.364652-0.972417 2.941766-1.458625 4.755854-1.458625 2.508672 0 6.083735 1.458625 10.696587 4.396305 4.60468 2.913165 10.516812 6.157279 17.728223 9.695569 7.211411 3.546462 15.840591 6.78649 25.879366 9.703741 9.993831 2.933594 21.601548 4.396305 34.790464 4.396305 8.665951 0 16.420772-1.005103 23.297149-3.068425 6.851862-2.059236 12.661849-4.939715 17.458562-8.665951 4.780369-3.754837 8.45349-8.396289 10.966248-13.9121 2.545444-5.51581 3.791609-11.660832 3.791609-18.418721 0-7.820194-2.157295-14.516796-6.492313-20.118408-4.330933-5.573011-9.961145-10.545412-16.931495-14.913117-6.94175-4.359533-14.847745-8.445319-23.668956-12.265528-8.853897-3.820209-17.969285-7.844708-27.35842-12.122526-9.397307-4.245131-18.484094-9.090873-27.329819-14.520882-8.853897-5.421837-16.763978-11.901893-23.69347-19.452425-6.945835-7.54236-12.608734-16.49023-16.919238-26.790496-4.335018-10.300265-6.508656-22.639338-6.508656-37.029474 0-16.514745 3.117454-31.060142 9.323763-43.578989 6.247166-12.510675 14.63937-22.909 25.184782-31.178629 10.582185-8.245115 23.027487-14.422823 37.384938-18.51678 7.378929-2.091922 14.97849-3.607749 22.790512-4.637367l0-44.122398 42.639258 0 0 44.093798c1.703773 0.208375 3.399374 0.143002 5.086803 0.38815 8.314574 1.25025 16.097995 2.917251 23.309406 5.029602 7.211411 2.128694 13.638352 4.486193 19.219535 7.129696 5.597526 2.663932 9.299248 4.874342 11.121508 6.635316C782.481045 483.430145 783.72721 484.933714 784.372764 486.179878L784.372764 486.179878zM476.847944 640.005618c0 141.392694 97.061921 255.994893 216.759094 255.994893L212.395475 896.000511c2.418785-6.725203 4.359533-13.752754 4.359533-21.3278 0-35.342045-29.119394-63.999745-65.029363-63.999745-7.701706 0-14.82323 1.903976-21.662835 4.294161l0-349.931188c6.839605 2.390185 13.961129 4.294161 21.662835 4.294161 35.905883 0 65.029363-28.6577 65.029363-63.999745 0-7.575046-1.940748-14.602598-4.359533-21.3278l481.211563 0C573.913951 384.002554 476.847944 498.600666 476.847944 640.005618L476.847944 640.005618zM303.455378 551.123439c-35.905883 0-65.033448 38.210266-65.033448 85.335717 0 47.117279 29.131651 85.327545 65.033448 85.327545 35.909969 0 65.029363-38.210266 65.029363-85.327545C368.48474 589.32962 339.365347 551.123439 303.455378 551.123439L303.455378 551.123439zM303.455378 551.123439" p-id="26165"></path></svg>