<?xml version="1.0" standalone="no"?><!DOCTYPE svg PUBLIC "-//W3C//DTD SVG 1.1//EN" "http://www.w3.org/Graphics/SVG/1.1/DTD/svg11.dtd"><svg t="1546981106117" class="icon" style="" viewBox="0 0 1024 1024" version="1.1" xmlns="http://www.w3.org/2000/svg" p-id="20634" xmlns:xlink="http://www.w3.org/1999/xlink" width="200" height="200"><defs><style type="text/css"></style></defs><path d="M356.079 734.97v98.441c18.978-4.164 35.362-13.312 45.124-25.6 6.403-8.025 10.275-18.316 10.275-29.51 0-4.164-0.535-8.205-1.542-12.053-3.954-18.306-16.515-26.157-53.857-31.277zM260.369 642.332c2.116 27.716 17.545 36.454 50.722 41.438v-97.348c-17.954 3.959-32.631 12.356-41.438 23.825-5.956 7.371-9.562 16.855-9.562 27.183 0 1.728 0.101 3.431 0.298 5.106z" fill="#686868" p-id="20635"></path><path d="M944.469 367.9l-244.395 324.949c-9.462 14.731-24.77 25.003-42.569 27.559 0.256 0.203-4.432 0.778-9.253 0.778-11.971 0-23.116-3.541-32.442-9.635-14.413-9.133-24.633-24.257-27.165-41.865-0.181 0.193-0.725-4.389-0.725-9.099 0-11.411 3.197-22.077 8.742-31.149l193.728-268.845c4.553-5.747 7.303-13.103 7.303-21.101 0-18.851-15.282-34.133-34.133-34.133-11.836 0-22.266 6.025-28.388 15.174l-80.837 112.286h-312.32l164.727-189.167h473.293c18.851 0 34.133-15.282 34.133-34.133s-15.282-34.133-34.133-34.133h-488.858l-25.737 11.742-213.948 245.692h-149.094c-37.702 0-68.267 30.564-68.267 68.267v390.144c0 37.702 30.564 68.267 68.267 68.267h755.985c37.702 0 68.267-30.564 68.267-68.267v-386.185l72.363-96.119c4.532-5.74 7.27-13.079 7.27-21.058 0-18.851-15.282-34.133-34.133-34.133-11.351 0-21.408 5.541-27.614 14.065zM437.521 835.049c-18.091 22.938-48.128 39.185-81.51 44.442v41.643h-44.988v-41.711c-46.353-7.305-92.706-36.454-98.372-88.201l-3.004-21.982 45.534-5.666 3.004 21.914c2.594 25.873 27.443 41.984 52.907 47.855v-103.697c-34.543-4.233-91.273-16.111-95.915-84.036-0.286-2.665-0.449-5.757-0.449-8.886 0-20.43 6.951-39.236 18.619-54.183 16.919-22.196 44.977-37.42 77.745-42.335v-42.189h44.988v42.121c38.434 5.871 82.398 29.286 91.819 78.848l2.867 22.665-44.783 8.875-2.935-24.303c-2.444-10.221-7.9-18.918-15.364-25.347-6.89-6.757-21.466-13.866-37.666-15.387l6.131 103.403c37.137 4.369 86.494 13.926 98.441 68.471 6.144 28.74 0.273 55.637-17.067 77.687z" fill="#686868" p-id="20636"></path></svg>