<?xml version="1.0" standalone="no"?><!DOCTYPE svg PUBLIC "-//W3C//DTD SVG 1.1//EN" "http://www.w3.org/Graphics/SVG/1.1/DTD/svg11.dtd"><svg t="1546964107353" class="icon" style="" viewBox="0 0 1024 1024" version="1.1" xmlns="http://www.w3.org/2000/svg" p-id="9040" xmlns:xlink="http://www.w3.org/1999/xlink" width="200" height="200"><defs><style type="text/css"></style></defs><path d="M736.482 366.705c41.353-47.919 53.204-59.927 56.118-61.941L792.6 56.194c0-32.81-15.541-50.233-48.666-50.233L63.56 5.961c-30.931 0-50.801 15.357-50.801 48.137l0 914.293c0 32.812 19.869 48.169 50.801 48.169l185.235 0 130.687-260.447L736.482 366.705zM145.945 102.141 654.69 102.141c20.067 0 36.341 10.176 36.341 30.005 0 19.857-16.273 31.978-36.341 31.978L145.945 164.124c-20.083 0-36.341-12.118-36.341-31.978C109.605 112.316 125.863 102.141 145.945 102.141zM145.945 291.524 654.69 291.524c20.067 0 36.341 10.176 36.341 30.035 0 19.797-16.273 27.999-36.341 27.999L145.945 349.558c-20.083 0-36.341-8.202-36.341-27.999C109.605 301.7 125.863 291.524 145.945 291.524zM145.945 509.354c-20.083 0-36.341-9.189-36.341-29.049 0-19.858 16.258-31.945 36.341-31.945l314.932 0c20.067 0 36.341 12.088 36.341 31.945 0 19.858-16.273 29.049-36.341 29.049L145.945 509.354zM1001.482 329.886l-65.031-54.768c-12.829-10.854-27.319-15.849-38.32-3.144L534.304 661.936l-84.185 98.554 108.9 96.827 39.355-46.749c17.964-20.662 34.162-39.225 42.071-48.353l2.407-2.713c1.736-2.099 2.955-3.393 2.955-3.393l357.289-389.962C1014.13 353.507 1014.298 340.74 1001.482 329.886zM792.601 304.764l0 1.623C792.601 306.387 794.503 303.448 792.601 304.764zM408.857 804.523c0 0-75.01 136.177-89.242 187.302-7.634 27.63-0.731 28.557 24.166 20.169 57.383-19.303 172.619-112.862 172.619-112.862L408.857 804.523zM467.932 1016.559l149.946 0 44.477 1.48 81.577-1.605c33.126 0 48.668-23.435 48.668-56.245 0 0 0-108.854 0-180.888L792.6 667.178 565.63 921.581C565.631 921.58 476.754 1011.747 467.932 1016.559z" p-id="9041"></path></svg>