<?xml version="1.0" standalone="no"?><!DOCTYPE svg PUBLIC "-//W3C//DTD SVG 1.1//EN" "http://www.w3.org/Graphics/SVG/1.1/DTD/svg11.dtd"><svg t="1546964435521" class="icon" style="" viewBox="0 0 1024 1024" version="1.1" xmlns="http://www.w3.org/2000/svg" p-id="12318" xmlns:xlink="http://www.w3.org/1999/xlink" width="200" height="200"><defs><style type="text/css"></style></defs><path d="M716.8 588.8c-97.28 0-179.2 81.92-179.2 179.2s81.92 179.2 179.2 179.2 179.2-81.92 179.2-179.2-81.92-179.2-179.2-179.2z m-332.8 0h-256c-30.72 0-51.2 20.48-51.2 51.2v256c0 30.72 20.48 51.2 51.2 51.2h256c30.72 0 51.2-20.48 51.2-51.2v-256c0-30.72-20.48-51.2-51.2-51.2z m0-460.8h-256c-30.72 0-51.2 20.48-51.2 51.2v256c0 30.72 20.48 51.2 51.2 51.2h256c30.72 0 51.2-20.48 51.2-51.2v-256c0-30.72-20.48-51.2-51.2-51.2z m460.8 0h-256c-30.72 0-51.2 20.48-51.2 51.2v256c0 30.72 20.48 51.2 51.2 51.2h256c30.72 0 51.2-20.48 51.2-51.2v-256c0-30.72-20.48-51.2-51.2-51.2z" fill="" p-id="12319"></path></svg>