<?xml version="1.0" standalone="no"?><!DOCTYPE svg PUBLIC "-//W3C//DTD SVG 1.1//EN" "http://www.w3.org/Graphics/SVG/1.1/DTD/svg11.dtd"><svg t="1546964279339" class="icon" style="" viewBox="0 0 1024 1024" version="1.1" xmlns="http://www.w3.org/2000/svg" p-id="12197" xmlns:xlink="http://www.w3.org/1999/xlink" width="200" height="200"><defs><style type="text/css"></style></defs><path d="M128 0h256a64 64 0 0 1 64 64v448a64 64 0 0 1-64 64H128a64 64 0 0 1-64-64V64a64 64 0 0 1 64-64z m0 704h256a64 64 0 0 1 64 64v192a64 64 0 0 1-64 64H128a64 64 0 0 1-64-64v-192a64 64 0 0 1 64-64z m512 320a64 64 0 0 1-64-64V512a64 64 0 0 1 64-64h256a64 64 0 0 1 64 64v448a64 64 0 0 1-64 64h-256z m0-704a64 64 0 0 1-64-64V64a64 64 0 0 1 64-64h256a64 64 0 0 1 64 64v192a64 64 0 0 1-64 64h-256z" p-id="12198"></path></svg>