<?xml version="1.0" standalone="no"?><!DOCTYPE svg PUBLIC "-//W3C//DTD SVG 1.1//EN" "http://www.w3.org/Graphics/SVG/1.1/DTD/svg11.dtd"><svg t="1546981143614" class="icon" style="" viewBox="0 0 1024 1024" version="1.1" xmlns="http://www.w3.org/2000/svg" p-id="22011" xmlns:xlink="http://www.w3.org/1999/xlink" width="200" height="200"><defs><style type="text/css"></style></defs><path d="M409.6 313.6c0 6.4 0 6.4 6.4 6.4h403.2c25.6 0 44.8 19.2 44.8 44.8 0 25.6-19.2 51.2-51.2 51.2H147.2c-6.4 0-12.8-12.8-6.4-19.2l249.6-236.8c6.4-6.4 12.8 0 12.8 6.4l6.4 147.2zM588.8 684.8c0-6.4-6.4-12.8-12.8-12.8H172.8c-25.6 0-44.8-19.2-44.8-44.8 0-32 19.2-51.2 51.2-51.2h672c6.4 0 12.8 12.8 6.4 19.2l-249.6 230.4c-6.4 6.4-19.2 0-19.2-6.4v-134.4z" p-id="22012"></path></svg>