<?xml version="1.0" standalone="no"?><!DOCTYPE svg PUBLIC "-//W3C//DTD SVG 1.1//EN" "http://www.w3.org/Graphics/SVG/1.1/DTD/svg11.dtd"><svg t="1546980979092" class="icon" style="" viewBox="0 0 1025 1024" version="1.1" xmlns="http://www.w3.org/2000/svg" p-id="18517" xmlns:xlink="http://www.w3.org/1999/xlink" width="200.1953125" height="200"><defs><style type="text/css"></style></defs><path d="M293.546667 665.6 293.546667 665.6 293.546667 665.6l607.573333 0c10.24 0 17.066667-6.826667 20.48-13.653333l102.4-406.186667c0 0 0 0 0-3.413333 0 0 0 0 0-3.413333s0-3.413333-3.413333-3.413333c0-3.413333 0-3.413333-3.413333-6.826667 0-3.413333-3.413333-3.413333-6.826667-3.413333l-3.413333-3.413333c0 0 0 0-3.413333 0 0 0 0 0-3.413333 0l-174.08 0c-10.24 0-20.48 10.24-20.48 20.48 0 10.24 10.24 20.48 20.48 20.48l150.186667 0L887.466667 624.64l-576.853333 0-92.16-365.226667 150.186667 0c10.24 0 20.48-10.24 20.48-20.48 0-10.24-10.24-20.48-20.48-20.48l-160.426667 0-30.72-119.466667c-3.413333-10.24-10.24-13.653333-20.48-13.653333l-136.533333 0c-10.24 0-20.48 10.24-20.48 20.48s10.24 20.48 20.48 20.48l119.466667 0 30.72 119.466667 95.573333 385.706667c-13.653333 3.413333-27.306667 10.24-37.546667 20.48-17.066667 17.066667-27.306667 37.546667-23.893333 61.44 0 27.306667 13.653333 51.2 34.133333 68.266667-3.413333 3.413333-6.826667 3.413333-10.24 6.826667-17.066667 17.066667-27.306667 37.546667-23.893333 61.44 0 47.786667 40.96 88.746667 88.746667 88.746667 23.893333 0 44.373333-10.24 61.44-27.306667 17.066667-17.066667 23.893333-37.546667 23.893333-61.44 0-17.066667-6.826667-34.133333-17.066667-47.786667l471.04 0c-10.24 13.653333-17.066667 30.72-17.066667 47.786667 0 47.786667 40.96 88.746667 88.746667 88.746667 23.893333 0 44.373333-10.24 61.44-27.306667s27.306667-37.546667 27.306667-61.44c0-47.786667-40.96-88.746667-88.746667-88.746667l0 0-614.4 0c-27.306667 0-47.786667-20.48-47.786667-47.786667 0-13.653333 3.413333-23.893333 13.653333-34.133333C269.653333 669.013333 283.306667 665.6 293.546667 665.6zM341.333333 846.506667c0 13.653333-3.413333 23.893333-13.653333 34.133333-10.24 10.24-20.48 13.653333-34.133333 13.653333-27.306667 0-47.786667-20.48-47.786667-47.786667 0-13.653333 3.413333-23.893333 13.653333-34.133333 10.24-10.24 20.48-13.653333 34.133333-13.653333C320.853333 798.72 341.333333 822.613333 341.333333 846.506667zM955.733333 846.506667c0 13.653333-3.413333 23.893333-13.653333 34.133333-10.24 10.24-20.48 13.653333-34.133333 13.653333-27.306667 0-47.786667-20.48-47.786667-47.786667 0-13.653333 3.413333-23.893333 13.653333-34.133333 10.24-10.24 20.48-13.653333 34.133333-13.653333C935.253333 798.72 955.733333 822.613333 955.733333 846.506667zM583.68 348.16c3.413333 3.413333 10.24 6.826667 13.653333 6.826667 3.413333 0 10.24-3.413333 13.653333-6.826667l95.573333-95.573333c6.826667-6.826667 6.826667-20.48 0-27.306667-6.826667-6.826667-20.48-6.826667-27.306667 0l-61.44 61.44 0-143.36c0-10.24-10.24-20.48-20.48-20.48-10.24 0-20.48 10.24-20.48 20.48l0 143.36-61.44-61.44c-6.826667-6.826667-20.48-6.826667-27.306667 0s-6.826667 20.48 0 27.306667L583.68 348.16z" p-id="18518"></path></svg>