<?xml version="1.0" standalone="no"?><!DOCTYPE svg PUBLIC "-//W3C//DTD SVG 1.1//EN" "http://www.w3.org/Graphics/SVG/1.1/DTD/svg11.dtd"><svg t="1546957844915" class="icon" style="" viewBox="0 0 1024 1024" version="1.1" xmlns="http://www.w3.org/2000/svg" p-id="7379" xmlns:xlink="http://www.w3.org/1999/xlink" width="200" height="200"><defs><style type="text/css"></style></defs><path d="M705.642736 640.57478 705.642736 640.57478 707.860589 642.722937C758.751149 693.64869 754.456214 774.023452 703.564275 825.017521L585.499114 943.08544C534.536788 994.011196 451.183727 994.011196 400.223471 943.08544L398.005615 940.901402C347.043981 889.97565 347.043981 806.55358 398.005615 755.558821L452.189146 704.873899C453.816307 702.899637 455.687748 701.166896 457.732399 699.677746L458.286515 699.156751C458.320329 699.191944 458.320329 699.227827 458.320329 699.227827 462.963746 696.074942 468.573935 694.204879 474.637491 694.204879 490.644129 694.204879 503.635202 707.194572 503.635202 723.200518 503.635202 732.416272 499.338888 740.627988 492.652894 745.928341L440.479514 798.101723C412.798438 825.679289 412.798438 870.715379 440.479514 898.396454L442.697365 900.648119C470.377749 928.292621 515.380717 928.292621 543.025908 900.648119L661.091759 782.580889C688.770764 754.934316 697.017673 707.298771 669.336598 679.653579L667.153937 677.469539C664.867077 675.149556 662.37182 673.104908 659.843439 671.026447 657.348871 669.501413 655.132398 667.561654 653.260954 665.309987L653.260954 665.309987 653.260954 665.309987C649.346933 660.666572 647.025571 654.709283 647.025571 648.195114 647.025571 633.47199 658.977413 621.485644 673.700538 621.485644 680.942029 621.485644 687.454817 624.325242 692.270747 628.967967L692.270747 628.967967C696.912094 632.536958 701.45131 636.349541 705.642736 640.57478M875.814341 467.424873 875.814341 467.424873C926.80979 518.386509 926.80979 601.740261 875.814341 652.73571L821.00769 703.281239C819.136247 705.637105 816.953586 707.680373 814.459709 709.342729L813.661309 710.071432C813.627496 710.003116 813.592993 709.967923 813.592993 709.898227 809.194549 712.599812 804.032209 714.159348 798.488956 714.159348 782.587208 714.159348 769.734837 701.271094 769.734837 685.40523 769.734837 675.947265 774.342368 667.494027 781.374772 662.263371L833.409452 610.192808C861.089146 582.581429 861.089146 537.54465 833.409452 509.863575L831.227482 507.716797C803.546407 480.034343 758.544131 480.034343 730.934132 507.716797L612.797896 625.747454C585.11751 653.427149 574.620315 693.648689 602.265507 721.330453L604.413664 723.477921C608.743791 727.773545 614.980556 732.312072 618.306646 739.830278L618.306646 739.830278C619.899995 743.119795 620.799833 746.861991 620.799833 750.776702 620.799833 764.704187 609.506308 775.997023 595.579513 775.997023 591.005794 775.997023 586.744672 774.785967 583.037669 772.63643L583.037669 772.63643C583.037669 772.63643 583.003856 772.63643 583.003856 772.601927 580.682493 771.216286 578.569529 769.553931 576.802285 767.578979 574.3436 765.500517 571.952541 763.282664 569.630489 760.996494L567.483712 758.850407C516.522076 707.853578 519.32786 634.235885 570.323309 583.308062L688.320845 465.242213C739.316294 414.246764 822.670045 414.246764 873.665494 465.242213L875.814341 467.424873" p-id="7380"></path><path d="M443.506028 470.894575C342.439049 470.894575 260.485677 389.854158 260.485677 289.913062 260.485677 189.934465 342.439049 108.89405 443.506028 108.89405 544.610927 108.89405 626.526379 189.934465 626.526379 289.913062 626.526379 389.854158 544.610927 470.894575 443.506028 470.894575M618.666667 608.418005C571.914543 571.562743 512.679625 549.534903 448.246505 549.534903 297.195934 549.534903 174.777846 670.476753 174.588227 819.769626 174.588227 838.295292 159.380775 853.333333 140.646409 853.333333 121.874119 853.333333 106.666667 838.295292 106.666667 819.769626 106.666667 677.377003 195.863489 555.572621 321.998111 505.995836 245.316149 463.769318 193.474289 382.841405 193.474289 289.913062 193.474289 153.37065 305.425403 42.666667 443.506028 42.666667 581.586654 42.666667 693.537766 153.37065 693.537766 289.913062 693.537766 381.341352 643.32663 461.181726 568.692553 503.970765 586.071578 510.465843 602.774063 518.233523 618.666667 527.166281L618.666667 608.418005Z" p-id="7381"></path></svg>